<svg width="65" height="64" viewBox="0 0 65 64" fill="none" xmlns="http://www.w3.org/2000/svg">
<g clip-path="url(#clip0_15167_117)">
<circle cx="32.5" cy="32" r="31.5" fill="#0F1115" stroke="#7553F0"/>
<rect x="46" y="0.5" width="18" height="18" rx="9" fill="url(#paint0_linear_15167_117)" stroke="#0F1115" stroke-width="3"/>
<rect x="6" y="50.5" width="13" height="13" rx="6.5" fill="url(#paint1_linear_15167_117)" stroke="#0F1115" stroke-width="3"/>
<path d="M43.7553 20.9432C43.746 20.8984 43.724 20.8571 43.6921 20.8242C43.6601 20.7914 43.6194 20.7684 43.5748 20.7578C40.6009 20.0305 33.731 22.6221 30.0052 26.3453C29.3412 27.0038 28.7357 27.7189 28.1956 28.4825C27.0471 28.3785 25.8987 28.466 24.9209 28.8926C22.1597 30.1067 21.3564 33.2775 21.1321 34.6386C21.12 34.7132 21.1252 34.7896 21.1473 34.8618C21.1694 34.9341 21.2079 35.0003 21.2597 35.0553C21.3115 35.1103 21.3753 35.1526 21.4461 35.179C21.517 35.2054 21.5929 35.2151 21.6681 35.2074L26.1016 34.7207C26.1047 35.0551 26.1247 35.3891 26.1617 35.7214C26.1849 35.9512 26.2874 36.1656 26.4516 36.3279L28.1682 38.0446C28.3307 38.2089 28.5453 38.3114 28.7753 38.3344C29.1056 38.3713 29.4376 38.3913 29.77 38.3946L29.2839 42.8243C29.2763 42.8993 29.286 42.9751 29.3124 43.0458C29.3388 43.1165 29.3811 43.1802 29.436 43.232C29.4909 43.2837 29.557 43.3222 29.6292 43.3443C29.7013 43.3664 29.7776 43.3717 29.8521 43.3596C31.2138 43.1409 34.3911 42.3375 35.5981 39.5769C36.0246 38.598 36.1121 37.4556 36.0137 36.3126C36.7795 35.773 37.4966 35.1675 38.1569 34.503C41.8964 30.7843 44.4717 24.0653 43.7553 20.9432ZM34.833 29.6856C34.5064 29.359 34.2839 28.9429 34.1938 28.4899C34.1036 28.037 34.1498 27.5674 34.3266 27.1407C34.5033 26.714 34.8026 26.3492 35.1866 26.0926C35.5706 25.836 36.0221 25.699 36.484 25.699C36.9459 25.699 37.3974 25.836 37.7814 26.0926C38.1654 26.3492 38.4647 26.714 38.6415 27.1407C38.8182 27.5674 38.8644 28.037 38.7743 28.4899C38.6841 28.9429 38.4617 29.359 38.135 29.6856C37.9184 29.9027 37.661 30.0749 37.3777 30.1925C37.0944 30.31 36.7907 30.3705 36.484 30.3705C36.1773 30.3705 35.8736 30.31 35.5903 30.1925C35.307 30.0749 35.0496 29.9027 34.833 29.6856V29.6856Z" stroke="white" stroke-linecap="round" stroke-linejoin="round"/>
<path d="M24.4959 37.25C23.9508 37.3169 23.4436 37.5641 23.0549 37.9522C22.0913 38.9191 22 42.5 22 42.5C22 42.5 25.5831 42.4087 26.5473 41.444C26.937 41.0559 27.1845 40.5479 27.25 40.0019" stroke="white" stroke-linecap="round" stroke-linejoin="round"/>
</g>
<defs>
<linearGradient id="paint0_linear_15167_117" x1="50.676" y1="-6.125" x2="67.4953" y2="-3.32568" gradientUnits="userSpaceOnUse">
<stop stop-color="#952EE6"/>
<stop offset="1" stop-color="#302DDD"/>
</linearGradient>
<linearGradient id="paint1_linear_15167_117" x1="9.61735" y1="46.5833" x2="20.8302" y2="48.4495" gradientUnits="userSpaceOnUse">
<stop stop-color="#952EE6"/>
<stop offset="1" stop-color="#302DDD"/>
</linearGradient>
<clipPath id="clip0_15167_117">
<rect width="64" height="64" fill="white" transform="translate(0.5)"/>
</clipPath>
</defs>
</svg>
