<svg width="65" height="64" viewBox="0 0 65 64" fill="none" xmlns="http://www.w3.org/2000/svg">
<g clip-path="url(#clip0_15167_962)">
<circle cx="32.5" cy="32" r="31.5" fill="#0F1115" stroke="#7553F0"/>
<rect x="1.5" y="-1.5" width="18" height="18" rx="9" transform="matrix(-1 0 0 1 19.5 2)" fill="url(#paint0_linear_15167_962)" stroke="#0F1115" stroke-width="3"/>
<rect x="1.5" y="-1.5" width="13" height="13" rx="6.5" transform="matrix(-1 0 0 1 59.5 52)" fill="url(#paint1_linear_15167_962)" stroke="#0F1115" stroke-width="3"/>
<g clip-path="url(#clip1_15167_962)">
<path d="M40.5549 20.9165V21.4165L40.5558 21.4165L40.5549 20.9165ZM33.8322 20.9165L33.8318 21.4165H33.8322V20.9165ZM33.2744 21.1462L32.922 20.7914L32.9209 20.7926L33.2744 21.1462ZM19.8344 34.5829L19.4809 34.2293L19.48 34.2302L19.8344 34.5829ZM19.375 35.6958H18.875H19.375ZM19.8344 36.8087L19.48 37.1614L19.4808 37.1622L19.8344 36.8087ZM26.2328 43.2071L25.8793 43.5607L25.8802 43.5616L26.2328 43.2071ZM27.346 43.6666V43.1666V43.6666ZM28.4591 43.2071L28.8118 43.5616L28.8126 43.5607L28.4591 43.2071ZM41.8953 29.7759L42.2488 30.1295L42.2501 30.1282L41.8953 29.7759ZM42.125 29.2181H41.625V29.2184L42.125 29.2181ZM42.125 22.4915L41.625 22.4891V22.4915H42.125ZM30.7246 45.063C30.5294 45.2583 30.5294 45.5748 30.7246 45.7701C30.9199 45.9654 31.2365 45.9654 31.4317 45.7701L30.7246 45.063ZM45.4063 31.0884L45.7599 31.442L45.7614 31.4405L45.4063 31.0884ZM45.6251 30.5416H45.125L45.1252 30.5516L45.6251 30.5416ZM46.1251 23.5416C46.1251 23.2654 45.9012 23.0416 45.6251 23.0416C45.3489 23.0416 45.1251 23.2654 45.1251 23.5416H46.1251ZM40.5549 20.4165H33.8322V21.4165H40.5549V20.4165ZM33.8326 20.4165C33.4914 20.4163 33.1641 20.551 32.922 20.7914L33.6267 21.501C33.6812 21.4468 33.755 21.4164 33.8318 21.4165L33.8326 20.4165ZM32.9209 20.7926L19.4809 34.2293L20.1879 34.9365L33.6279 21.4998L32.9209 20.7926ZM19.48 34.2302C19.0925 34.6196 18.875 35.1465 18.875 35.6958H19.875C19.875 35.4109 19.9878 35.1376 20.1888 34.9356L19.48 34.2302ZM18.875 35.6958C18.875 36.2451 19.0925 36.772 19.48 37.1614L20.1888 36.456C19.9878 36.254 19.875 35.9807 19.875 35.6958H18.875ZM19.4808 37.1622L25.8793 43.5607L26.5864 42.8536L20.1879 36.4551L19.4808 37.1622ZM25.8802 43.5616C26.2696 43.9491 26.7966 44.1666 27.346 44.1666V43.1666C27.061 43.1666 26.7875 43.0537 26.5855 42.8527L25.8802 43.5616ZM27.346 44.1666C27.8953 44.1666 28.4223 43.949 28.8118 43.5616L28.1065 42.8527C27.9044 43.0537 27.631 43.1666 27.346 43.1666V44.1666ZM28.8126 43.5607L42.2488 30.1295L41.5418 29.4223L28.1057 42.8535L28.8126 43.5607ZM42.2501 30.1282C42.4905 29.8862 42.6253 29.5588 42.625 29.2177L41.625 29.2184C41.6251 29.2953 41.5947 29.369 41.5405 29.4236L42.2501 30.1282ZM42.625 29.2181V22.4915H41.625V29.2181H42.625ZM42.625 22.4939C42.6263 22.2213 42.5737 21.9511 42.4702 21.6989L41.5451 22.0786C41.5985 22.2088 41.6257 22.3483 41.625 22.4891L42.625 22.4939ZM42.4702 21.6989C42.3667 21.4466 42.2143 21.2174 42.0218 21.0243L41.3136 21.7303C41.413 21.83 41.4916 21.9484 41.5451 22.0786L42.4702 21.6989ZM42.0218 21.0243C41.8293 20.8312 41.6005 20.6781 41.3486 20.5738L40.966 21.4977C41.0961 21.5516 41.2142 21.6306 41.3136 21.7303L42.0218 21.0243ZM41.3486 20.5738C41.0967 20.4695 40.8267 20.416 40.554 20.4165L40.5558 21.4165C40.6966 21.4163 40.836 21.4439 40.966 21.4977L41.3486 20.5738ZM37.75 26.1686C37.5766 26.1686 37.407 26.1171 37.2628 26.0208L36.7072 26.8522C37.0159 27.0585 37.3788 27.1686 37.75 27.1686V26.1686ZM37.2628 26.0208C37.1186 25.9244 37.0062 25.7874 36.9398 25.6272L36.0159 26.0099C36.158 26.3528 36.3986 26.646 36.7072 26.8522L37.2628 26.0208ZM36.9398 25.6272C36.8734 25.4669 36.8561 25.2906 36.8899 25.1205L35.9091 24.9254C35.8367 25.2895 35.8739 25.6669 36.0159 26.0099L36.9398 25.6272ZM36.8899 25.1205C36.9237 24.9503 37.0073 24.7941 37.1299 24.6714L36.4228 23.9643C36.1603 24.2268 35.9815 24.5613 35.9091 24.9254L36.8899 25.1205ZM37.1299 24.6714C37.2526 24.5488 37.4088 24.4652 37.5789 24.4314L37.3839 23.4506C37.0198 23.523 36.6853 23.7018 36.4228 23.9643L37.1299 24.6714ZM37.5789 24.4314C37.7491 24.3976 37.9254 24.4149 38.0857 24.4813L38.4683 23.5574C38.1254 23.4154 37.748 23.3782 37.3839 23.4506L37.5789 24.4314ZM38.0857 24.4813C38.2459 24.5477 38.3829 24.6601 38.4792 24.8043L39.3107 24.2488C39.1045 23.9401 38.8113 23.6995 38.4683 23.5574L38.0857 24.4813ZM38.4792 24.8043C38.5756 24.9485 38.627 25.1181 38.627 25.2916H39.627C39.627 24.9203 39.517 24.5574 39.3107 24.2488L38.4792 24.8043ZM38.627 25.2916C38.627 25.5241 38.5347 25.7472 38.3702 25.9117L39.0773 26.6188C39.4293 26.2668 39.627 25.7894 39.627 25.2916H38.627ZM38.3702 25.9117C38.2057 26.0762 37.9826 26.1686 37.75 26.1686V27.1686C38.2479 27.1686 38.7253 26.9708 39.0773 26.6188L38.3702 25.9117ZM31.4317 45.7701L45.7599 31.442L45.0528 30.7349L30.7246 45.063L31.4317 45.7701ZM45.7614 31.4405C45.8798 31.321 45.973 31.179 46.0354 31.0229L45.107 30.6515C45.0943 30.6832 45.0753 30.7121 45.0512 30.7364L45.7614 31.4405ZM46.0354 31.0229C46.0979 30.8668 46.1283 30.6997 46.125 30.5315L45.1252 30.5516C45.1259 30.5858 45.1197 30.6198 45.107 30.6515L46.0354 31.0229ZM46.1251 30.5416V23.5416H45.1251V30.5416H46.1251Z" fill="white"/>
</g>
</g>
<defs>
<linearGradient id="paint0_linear_15167_962" x1="3.17602" y1="-8.125" x2="19.9953" y2="-5.32568" gradientUnits="userSpaceOnUse">
<stop stop-color="#952EE6"/>
<stop offset="1" stop-color="#302DDD"/>
</linearGradient>
<linearGradient id="paint1_linear_15167_962" x1="2.11735" y1="-5.41667" x2="13.3302" y2="-3.55045" gradientUnits="userSpaceOnUse">
<stop stop-color="#952EE6"/>
<stop offset="1" stop-color="#302DDD"/>
</linearGradient>
<clipPath id="clip0_15167_962">
<rect width="64" height="64" fill="white" transform="translate(0.5)"/>
</clipPath>
<clipPath id="clip1_15167_962">
<rect width="28" height="28" fill="white" transform="translate(18.5 18)"/>
</clipPath>
</defs>
</svg>
