<svg width="65" height="64" viewBox="0 0 65 64" fill="none" xmlns="http://www.w3.org/2000/svg">
<g clip-path="url(#clip0_15167_2238)">
<circle cx="32.5" cy="32" r="31.5" fill="#0F1115" stroke="#7553F0"/>
<rect x="46" y="0.5" width="18" height="18" rx="9" fill="url(#paint0_linear_15167_2238)" stroke="#0F1115" stroke-width="3"/>
<rect x="6" y="50.5" width="13" height="13" rx="6.5" fill="url(#paint1_linear_15167_2238)" stroke="#0F1115" stroke-width="3"/>
<path d="M40.8648 26.9581C40.697 29.2883 38.9684 31.0833 37.0835 31.0833C35.1985 31.0833 33.4671 29.2888 33.3021 26.9581C33.1302 24.5341 34.8129 22.833 37.0835 22.833C39.354 22.833 41.0367 24.5782 40.8648 26.9581Z" stroke="white" stroke-linecap="round" stroke-linejoin="round"/>
<path d="M37.083 34.75C33.3492 34.75 29.7586 36.6046 28.8591 40.2164C28.74 40.6942 29.0396 41.1669 29.5306 41.1669H44.636C45.1271 41.1669 45.425 40.6942 45.3075 40.2164C44.408 36.5467 40.8174 34.75 37.083 34.75Z" stroke="white" stroke-miterlimit="10"/>
<path d="M29.2916 27.9861C29.1575 29.847 27.7607 31.3125 26.255 31.3125C24.7494 31.3125 23.3503 29.8476 23.2185 27.9861C23.0816 26.0501 24.4411 24.6665 26.255 24.6665C28.0689 24.6665 29.4285 26.0857 29.2916 27.9861Z" stroke="white" stroke-linecap="round" stroke-linejoin="round"/>
<path d="M29.6352 34.865C28.601 34.3912 27.462 34.209 26.2548 34.209C23.2756 34.209 20.4052 35.69 19.6861 38.5748C19.5916 38.9563 19.8311 39.3339 20.223 39.3339H26.6559" stroke="white" stroke-miterlimit="10" stroke-linecap="round"/>
</g>
<defs>
<linearGradient id="paint0_linear_15167_2238" x1="50.676" y1="-6.125" x2="67.4953" y2="-3.32568" gradientUnits="userSpaceOnUse">
<stop stop-color="#952EE6"/>
<stop offset="1" stop-color="#302DDD"/>
</linearGradient>
<linearGradient id="paint1_linear_15167_2238" x1="9.61735" y1="46.5833" x2="20.8302" y2="48.4495" gradientUnits="userSpaceOnUse">
<stop stop-color="#952EE6"/>
<stop offset="1" stop-color="#302DDD"/>
</linearGradient>
<clipPath id="clip0_15167_2238">
<rect width="64" height="64" fill="white" transform="translate(0.5)"/>
</clipPath>
</defs>
</svg>
