<svg width="20" height="15" viewBox="0 0 20 15" fill="none" xmlns="http://www.w3.org/2000/svg">
<path d="M17.0176 3.0772C17.8405 2.59596 18.3854 1.9391 18.6523 1.10371C17.8518 1.5083 17.0543 1.7858 16.2579 1.9391C15.5419 1.20559 14.6355 0.833008 13.5488 0.833008C12.4865 0.833008 11.5892 1.18812 10.857 1.87894C10.1288 2.57461 9.76109 3.4197 9.76109 4.40645C9.76109 4.70626 9.80081 4.97405 9.88025 5.20109C6.74746 5.09921 4.15446 3.86117 2.11142 1.47823C1.76515 2.06135 1.59201 2.65514 1.59201 3.26931C1.59201 4.53161 2.15114 5.53194 3.26738 6.26643C2.63084 6.215 2.06966 6.0617 1.59201 5.81041C1.59201 6.71177 1.87005 7.46469 2.42715 8.12737C2.98628 8.78326 3.7043 9.20144 4.58119 9.37997C4.26343 9.45759 3.92836 9.49446 3.58412 9.49446C3.26636 9.49446 3.04128 9.46923 2.90786 9.41393C3.14211 10.1484 3.58412 10.7441 4.22269 11.2002C4.85923 11.6581 5.59151 11.8997 6.41442 11.9211C5.05783 12.935 3.50671 13.4366 1.7519 13.4366C1.32211 13.4366 1.01759 13.4308 0.833252 13.3997C2.56158 14.4689 4.48546 14.9997 6.61404 14.9997C8.79253 14.9997 10.7174 14.4738 12.3928 13.422C14.0682 12.3761 15.3046 11.0857 16.099 9.56626C16.8975 8.04878 17.2926 6.46921 17.2926 4.81978V4.3657C18.0646 3.81266 18.6889 3.18975 19.1666 2.50184C18.474 2.78613 17.7581 2.97921 17.0176 3.0772Z" fill="white"/>
</svg>
