<svg width="20" height="21" viewBox="0 0 20 21" fill="none" xmlns="http://www.w3.org/2000/svg">
<g clip-path="url(#clip0_15207_796)">
<path d="M20 9.55159C19.926 8.36697 18.9635 7.40446 17.7048 7.40446C17.1865 7.40446 16.6683 7.62658 16.2981 7.99677C14.5952 6.81216 12.5961 6.21985 10.523 6.14581L11.4856 1.48137L14.6692 2.14772C14.8173 3.03618 15.5577 3.62849 16.3721 3.48041C17.1865 3.40638 17.7788 2.66599 17.7048 1.85156C17.6308 1.03714 16.8904 0.444829 16.076 0.518868C15.6317 0.592906 15.1875 0.815022 14.9654 1.25925L11.2634 0.518868C11.0413 0.444829 10.7452 0.592906 10.6711 0.889061L9.56055 6.07177C7.48746 6.14581 5.41438 6.73812 3.71149 7.92274C2.82303 7.10831 1.41629 7.18235 0.601866 8.07081C-0.212559 8.95928 -0.212559 10.366 0.675905 11.1804C0.823982 11.3285 1.0461 11.4766 1.26821 11.5506C1.26821 11.7727 1.26821 11.9949 1.26821 12.217C1.26821 15.5487 5.19226 18.2882 10.0048 18.2882C14.8173 18.2882 18.7413 15.5487 18.7413 12.217C18.7413 11.9949 18.7413 11.7727 18.7413 11.5506C19.5558 11.1804 20 10.366 20 9.55159ZM4.97015 11.0324C4.97015 10.2179 5.6365 9.55159 6.45092 9.55159C7.26535 9.55159 7.9317 10.2179 7.9317 11.0324C7.9317 11.8468 7.26535 12.5131 6.45092 12.5131C5.6365 12.5131 4.97015 11.8468 4.97015 11.0324ZM13.7067 15.1785C12.6702 15.993 11.3375 16.3631 10.0048 16.3631C8.67208 16.4372 7.33939 15.993 6.30284 15.1785C6.15477 15.0304 6.15477 14.7343 6.37688 14.5862C6.52496 14.4381 6.74708 14.4381 6.89515 14.5862C7.78362 15.2526 8.8942 15.5487 10.0048 15.5487C11.1154 15.6228 12.2259 15.2526 13.1144 14.6603C13.2625 14.5122 13.5586 14.5122 13.7067 14.6603C13.8548 14.8083 13.8548 15.0304 13.7067 15.1785ZM13.4106 12.5872C12.5961 12.5872 11.9298 11.9208 11.9298 11.1064C11.9298 10.292 12.5961 9.62562 13.4106 9.62562C14.225 9.62562 14.8913 10.292 14.8913 11.1064C14.9654 11.9208 14.299 12.5872 13.4106 12.5872C13.4846 12.6612 13.4846 12.6612 13.4106 12.5872Z" fill="white"/>
</g>
<defs>
<clipPath id="clip0_15207_796">
<rect width="20" height="20" fill="white" transform="translate(0 0.5)"/>
</clipPath>
</defs>
</svg>
