<svg width="20" height="21" viewBox="0 0 20 21" fill="none" xmlns="http://www.w3.org/2000/svg">
<path d="M17.1568 3.05856L0.389445 9.40424C-0.153651 9.6098 -0.120749 10.3667 0.438302 10.527L4.69906 11.7489L6.28917 16.6491C6.45527 17.1609 7.12315 17.3161 7.50977 16.9327L9.7127 14.7482L14.035 17.8295C14.564 18.2065 15.3173 17.9264 15.4516 17.3027L18.3143 4.01058C18.4545 3.35949 17.7949 2.81704 17.1568 3.05856ZM15.0546 6.0084L7.26626 12.6971C7.18863 12.7638 7.13922 12.856 7.12767 12.9561L6.82781 15.5448C6.81802 15.6292 6.69637 15.6404 6.6704 15.5593L5.4367 11.6986C5.3802 11.5218 5.45387 11.3303 5.61579 11.2328L14.813 5.69303C15.0245 5.56554 15.241 5.84831 15.0546 6.0084Z" fill="#F9FAFC"/>
</svg>
