<svg width="20" height="21" viewBox="0 0 20 21" fill="none" xmlns="http://www.w3.org/2000/svg">
<path d="M16.9419 4.02317C15.6473 3.41744 14.263 2.97723 12.8157 2.72656C12.638 3.0479 12.4304 3.48012 12.2872 3.82394C10.7487 3.59258 9.22445 3.59258 7.7143 3.82394C7.57116 3.48012 7.3588 3.0479 7.17947 2.72656C5.73067 2.97723 4.3448 3.41906 3.05016 4.02638C0.438869 7.97238 -0.269009 11.8204 0.0849305 15.6137C1.81688 16.9071 3.49534 17.6928 5.14548 18.2069C5.55291 17.6462 5.91628 17.0501 6.22931 16.4219C5.63313 16.1954 5.06211 15.9158 4.52256 15.5912C4.6657 15.4852 4.80571 15.3743 4.94098 15.2603C8.23183 16.7995 11.8074 16.7995 15.0589 15.2603C15.1958 15.3743 15.3358 15.4852 15.4774 15.5912C14.9362 15.9174 14.3637 16.1969 13.7675 16.4235C14.0805 17.0501 14.4423 17.6478 14.8513 18.2085C16.503 17.6944 18.183 16.9087 19.915 15.6137C20.3303 11.2163 19.2056 7.40361 16.9419 4.02317ZM6.67765 13.2809C5.68977 13.2809 4.87963 12.3586 4.87963 11.2355C4.87963 10.1125 5.67247 9.18864 6.67765 9.18864C7.68285 9.18864 8.49297 10.1109 8.47567 11.2355C8.47723 12.3586 7.68285 13.2809 6.67765 13.2809ZM13.3223 13.2809C12.3344 13.2809 11.5243 12.3586 11.5243 11.2355C11.5243 10.1125 12.3171 9.18864 13.3223 9.18864C14.3275 9.18864 15.1376 10.1109 15.1203 11.2355C15.1203 12.3586 14.3275 13.2809 13.3223 13.2809Z" fill="white"/>
</svg>
